<?xml version="1.0" encoding="UTF-8"?>
<svg width="60px" height="60px" viewBox="0 0 60 60" version="1.1" xmlns="http://www.w3.org/2000/svg" xmlns:xlink="http://www.w3.org/1999/xlink">
    <!-- Generator: Sketch 47.1 (45422) - http://www.bohemiancoding.com/sketch -->
    <title>12 图标/60px/机构默认logo</title>
    <desc>Created with Sketch.</desc>
    <defs>
        <polygon id="path-1" points="22.4731372 0.00219512195 0.00329268293 0.00219512195 0.00329268293 44.9451768 44.9429817 44.9451768 44.9429817 0.00219512195"></polygon>
    </defs>
    <g id="Symbols" stroke="none" stroke-width="1" fill="none" fill-rule="evenodd">
        <g id="12-图标/60px/机构默认logo">
            <g id="默认logo">
                <rect id="Rectangle" fill="#EFF2F7" x="0" y="0" width="60" height="60" rx="5"></rect>
                <g id="机构空间" transform="translate(8.000000, 7.000000)">
                    <mask id="mask-2" fill="white">
                        <use xlink:href="#path-1"></use>
                    </mask>
                    <g id="Clip-2"></g>
                    <path d="M40.6371411,39.3293369 L38.9291561,39.3293369 L38.9291561,18.6615748 C38.9291561,16.9756908 37.5581534,15.6046881 35.8722694,15.6046881 L27.8578572,15.6046881 L27.8578572,7.16424098 C27.8578572,5.41534373 26.4461274,4 24.6936162,4 L9.92468714,4 C8.17578989,4 6.76044616,5.41172973 6.76044616,7.16424098 L6.76044616,39.3293369 L5.30798944,39.3293369 C4.58912808,39.3293369 4,39.918465 4,40.6371411 C4,41.3560487 4.58912808,41.9451768 5.30798944,41.9451768 L40.6371411,41.9451768 C41.3560487,41.9451768 41.9451768,41.3560487 41.9451768,40.6371411 C41.9451768,39.918465 41.3560487,39.3293369 40.6371411,39.3293369 Z M16.4421164,27.3094561 C16.4421164,27.8985841 15.9789686,28.3655313 15.3860411,28.3655313 L12.2255995,28.3655313 C11.6364714,28.3655313 11.1695243,27.9023835 11.1695243,27.3094561 L11.1695243,27.0982225 C11.1695243,26.5091407 11.6326721,26.0423326 12.2255995,26.0423326 L15.3898405,26.0423326 C15.9789686,26.0423326 16.4457304,26.5054804 16.4457304,27.0982225 L16.4457304,27.3094561 L16.4421164,27.3094561 Z M16.5051297,20.8772801 C16.5051297,21.4664082 16.0419355,21.93317 15.4490545,21.93317 L12.2848135,21.93317 C11.6956854,21.93317 11.2289236,21.4700222 11.2289236,20.8772801 L11.2289236,20.6660466 C11.2289236,20.0769185 11.6920714,19.6101567 12.2848135,19.6101567 L15.4490545,19.6101567 C16.0383215,19.6101567 16.5051297,20.0733045 16.5051297,20.6660466 L16.5051297,20.8772801 Z M16.5051297,14.4412586 C16.5051297,15.0303866 16.0419355,15.4973338 15.4490545,15.4973338 L12.2848135,15.4973338 C11.6956854,15.4973338 11.2289236,15.034186 11.2289236,14.4412586 L11.2289236,14.2300713 C11.2289236,13.6409432 11.6920714,13.1741814 12.2848135,13.1741814 L15.4490545,13.1741814 C16.0383215,13.1741814 16.5051297,13.6373292 16.5051297,14.2300713 L16.5051297,14.4412586 Z M23.3005588,27.3094561 C23.3005588,27.8985841 22.8373646,28.3655313 22.2444836,28.3655313 L19.0840419,28.3655313 C18.4947285,28.3655313 18.0279667,27.9023835 18.0279667,27.3094561 L18.0279667,27.0982225 C18.0279667,26.5091407 18.4911145,26.0423326 19.0840419,26.0423326 L22.2482829,26.0423326 C22.8373646,26.0423326 23.3041728,26.5054804 23.3041728,27.0982225 L23.3041728,27.3094561 L23.3005588,27.3094561 Z M23.3635257,20.8772801 C23.3635257,21.4664082 22.9003779,21.93317 22.3074505,21.93317 L19.1432095,21.93317 C18.5540815,21.93317 18.0873197,21.4700222 18.0873197,20.8772801 L18.0873197,20.6660466 C18.0873197,20.0769185 18.5504675,19.6101567 19.1432095,19.6101567 L22.3074505,19.6101567 C22.8965786,19.6101567 23.3635257,20.0733045 23.3635257,20.6660466 L23.3635257,20.8772801 Z M23.3635257,14.4412586 C23.3635257,15.0303866 22.9003779,15.4973338 22.3074505,15.4973338 L19.1432095,15.4973338 C18.5540815,15.4973338 18.0873197,15.034186 18.0873197,14.4412586 L18.0873197,14.2300713 C18.0873197,13.6409432 18.5504675,13.1741814 19.1432095,13.1741814 L22.3074505,13.1741814 C22.8965786,13.1741814 23.3635257,13.6373292 23.3635257,14.2300713 L23.3635257,14.4412586 Z M35.216514,31.9483938 C35.216514,32.5375218 34.7533662,33.004469 34.1604388,33.004469 L29.9439219,33.004469 C29.3548402,33.004469 28.8878467,32.5413212 28.8878467,31.9483938 L28.8878467,31.7371602 C28.8878467,31.1480784 29.3510409,30.6812703 29.9439219,30.6812703 L34.1642381,30.6812703 C34.7533662,30.6812703 35.220128,31.1444181 35.220128,31.7371602 L35.216514,31.9483938 Z M34.0567449,26.8872206 L30.0514616,26.8872206 C29.4178072,26.8872206 28.8916461,26.3610595 28.8916461,25.7274051 C28.8916461,25.093797 29.4178072,24.5676359 30.0514616,24.5676359 L34.0567449,24.5676359 C34.6903993,24.5676359 35.216514,25.093797 35.216514,25.7274051 C35.216514,26.3572601 34.7124539,26.8872206 34.0567449,26.8872206 Z" id="Fill-1" fill="#C0CCDA" mask="url(#mask-2)"></path>
                </g>
            </g>
        </g>
    </g>
</svg>