<?xml version="1.0" encoding="UTF-8"?>
<svg width="30px" height="30px" viewBox="0 0 30 30" version="1.1" xmlns="http://www.w3.org/2000/svg" xmlns:xlink="http://www.w3.org/1999/xlink">
    <!-- Generator: Sketch 42 (36781) - http://www.bohemiancoding.com/sketch -->
    <title>12 图标/30px/会话框/键盘</title>
    <desc>Created with Sketch.</desc>
    <defs></defs>
    <g id="Symbols" stroke="none" stroke-width="1" fill="none" fill-rule="evenodd">
        <g id="12-图标/30px/会话框/键盘" fill="#666666">
            <g id="键盘">
                <path d="M15,30 C6.71571428,30 0,23.2842857 0,15 C0,6.71571428 6.71571428,0 15,0 C23.2842857,0 30,6.71571428 30,15 C30,23.2842857 23.2842857,30 15,30 Z M15,0.519107139 C7.00232142,0.519107139 0.519107139,7.00232142 0.519107139,15 C0.519107139,22.9976786 7.00232142,29.4808929 15,29.4808929 C22.9976786,29.4808929 29.4808929,22.9976786 29.4808929,15 C29.4808929,7.00232142 22.9976786,0.519107139 15,0.519107139 Z M21.9642857,17.1428571 L20.8928571,17.1428571 C20.5971429,17.1428571 20.3571429,16.9028571 20.3571429,16.6071429 L20.3571429,14.4642857 C20.3571429,14.1685714 20.5971429,13.9285714 20.8928571,13.9285714 L21.9642857,13.9285714 C22.26,13.9285714 22.5,14.1685714 22.5,14.4642857 L22.5,16.6071429 C22.5,16.9028571 22.26,17.1428571 21.9642857,17.1428571 Z M21.9642857,12.3214286 L20.8928571,12.3214286 C20.5971429,12.3214286 20.3571429,12.0814286 20.3571429,11.7857143 L20.3571429,9.64285714 C20.3571429,9.34714286 20.5971429,9.10714286 20.8928571,9.10714286 L21.9642857,9.10714286 C22.26,9.10714286 22.5,9.34714286 22.5,9.64285714 L22.5,11.7857143 C22.5,12.0814286 22.26,12.3214286 21.9642857,12.3214286 Z M17.6785714,17.1428571 L16.6071429,17.1428571 C16.3114286,17.1428571 16.0714286,16.9028571 16.0714286,16.6071429 L16.0714286,14.4642857 C16.0714286,14.1685714 16.3114286,13.9285714 16.6071429,13.9285714 L17.6785714,13.9285714 C17.9742857,13.9285714 18.2142857,14.1685714 18.2142857,14.4642857 L18.2142857,16.6071429 C18.2142857,16.9028571 17.9742857,17.1428571 17.6785714,17.1428571 Z M17.6785714,12.3214286 L16.6071429,12.3214286 C16.3114286,12.3214286 16.0714286,12.0814286 16.0714286,11.7857143 L16.0714286,9.64285714 C16.0714286,9.34714286 16.3114286,9.10714286 16.6071429,9.10714286 L17.6785714,9.10714286 C17.9742857,9.10714286 18.2142857,9.34714286 18.2142857,9.64285714 L18.2142857,11.7857143 C18.2142857,12.0814286 17.9742857,12.3214286 17.6785714,12.3214286 Z M21.4285714,19.8214286 L21.4285714,20.3571429 C21.4285714,20.6528571 21.1885714,20.8928571 20.8928571,20.8928571 L9.10714286,20.8928571 C8.81142858,20.8928571 8.57142858,20.6528571 8.57142858,20.3571429 L8.57142858,19.8214286 C8.57142858,19.5257143 8.81142858,19.2857143 9.10714286,19.2857143 L20.8928571,19.2857143 C21.1885714,19.2857143 21.4285714,19.5257143 21.4285714,19.8214286 Z M13.3928571,17.1428571 L12.3214286,17.1428571 C12.0257143,17.1428571 11.7857143,16.9028571 11.7857143,16.6071429 L11.7857143,14.4642857 C11.7857143,14.1685714 12.0257143,13.9285714 12.3214286,13.9285714 L13.3928571,13.9285714 C13.6885714,13.9285714 13.9285714,14.1685714 13.9285714,14.4642857 L13.9285714,16.6071429 C13.9285714,16.9028571 13.6885714,17.1428571 13.3928571,17.1428571 Z M13.3928571,12.3214286 L12.3214286,12.3214286 C12.0257143,12.3214286 11.7857143,12.0814286 11.7857143,11.7857143 L11.7857143,9.64285714 C11.7857143,9.34714286 12.0257143,9.10714286 12.3214286,9.10714286 L13.3928571,9.10714286 C13.6885714,9.10714286 13.9285714,9.34714286 13.9285714,9.64285714 L13.9285714,11.7857143 C13.9285714,12.0814286 13.6885714,12.3214286 13.3928571,12.3214286 Z M9.10714286,17.1428571 L8.03571428,17.1428571 C7.74,17.1428571 7.5,16.9028571 7.5,16.6071429 L7.5,14.4642857 C7.5,14.1685714 7.74,13.9285714 8.03571428,13.9285714 L9.10714286,13.9285714 C9.40285714,13.9285714 9.64285714,14.1685714 9.64285714,14.4642857 L9.64285714,16.6071429 C9.64285714,16.9028571 9.40285714,17.1428571 9.10714286,17.1428571 Z M9.10714286,12.3214286 L8.03571428,12.3214286 C7.74,12.3214286 7.5,12.0814286 7.5,11.7857143 L7.5,9.64285714 C7.5,9.34714286 7.74,9.10714286 8.03571428,9.10714286 L9.10714286,9.10714286 C9.40285714,9.10714286 9.64285714,9.34714286 9.64285714,9.64285714 L9.64285714,11.7857143 C9.64285714,12.0814286 9.40285714,12.3214286 9.10714286,12.3214286 Z" id="Shape"></path>
            </g>
        </g>
    </g>
</svg>