<?xml version="1.0" encoding="UTF-8"?>
<svg width="30px" height="26px" viewBox="0 0 30 26" version="1.1" xmlns="http://www.w3.org/2000/svg" xmlns:xlink="http://www.w3.org/1999/xlink">
    <!-- Generator: Sketch 42 (36781) - http://www.bohemiancoding.com/sketch -->
    <title>Combined Shape</title>
    <desc>Created with Sketch.</desc>
    <defs></defs>
    <g id="Page-1" stroke="none" stroke-width="1" fill="none" fill-rule="evenodd">
        <g id="会话框(H5)" transform="translate(-10.000000, -629.000000)" fill="#666666">
            <g id="会话输入框" transform="translate(0.000000, 617.000000)">
                <g id="上传图片" transform="translate(10.000000, 12.000000)">
                    <path d="M30,4.07188935 L30,17.5433028 L30,21.9313741 C30,23.9036427 28.2476013,25.5032635 26.0869638,25.5032635 L3.91303624,25.5032635 C1.75239866,25.5032635 0,23.9036427 0,21.9313741 L0,4.07188939 C0,2.09901236 1.75239866,0.500000037 3.91303624,0.500000037 L26.0869638,0.5 C28.2476013,0.5 30,2.09901232 30,4.07188935 Z M28.8046891,21.9313741 L28.805262,18.0154349 L19.9847242,11.7038864 L11.68748,20.4014607 L7.61869301,16.3378163 L1.42939524,22.5183923 L1.23569804,22.3248999 C1.42462156,23.4518181 2.40204393,24.3126463 3.58694989,24.3126463 L26.4133765,24.3126463 C27.7339698,24.3126463 28.8046891,23.2464226 28.8046891,21.9313741 Z M19.9638345,10.0101816 L28.8047273,16.3419615 L28.8047273,4.07188935 C28.8047273,2.75684083 27.7340079,1.69061712 26.4134146,1.69061712 L3.58698807,1.69061712 C2.26639477,1.69061712 1.19567543,2.75684083 1.19567543,4.07188935 L1.19567543,21.0783039 L7.61869301,14.6649513 L11.6665903,18.7065769 L19.9638345,10.0101816 Z M8.3695752,5.85785304 C9.36017293,5.85785304 10.1630692,6.65737822 10.1630692,7.64438717 C10.1630692,8.63082567 9.36017293,9.43035086 8.3695752,9.43035086 C7.37897748,9.43035086 6.57608117,8.63021724 6.57608117,7.64438717 C6.57608117,6.65737822 7.37897748,5.85785304 8.3695752,5.85785304 Z" id="Combined-Shape"></path>
                </g>
            </g>
        </g>
    </g>
</svg>