<?xml version="1.0" encoding="UTF-8"?>
<svg width="30px" height="30px" viewBox="0 0 30 30" version="1.1" xmlns="http://www.w3.org/2000/svg" xmlns:xlink="http://www.w3.org/1999/xlink">
    <!-- Generator: Sketch 42 (36781) - http://www.bohemiancoding.com/sketch -->
    <title>12 图标/30px/会话框/加号</title>
    <desc>Created with Sketch.</desc>
    <defs></defs>
    <g id="Symbols" stroke="none" stroke-width="1" fill="none" fill-rule="evenodd">
        <g id="12-图标/30px/会话框/加号" fill="#666666">
            <g id="键盘">
                <path d="M15,30 C6.71571428,30 0,23.2842857 0,15 C0,6.71571428 6.71571428,0 15,0 C23.2842857,0 30,6.71571428 30,15 C30,23.2842857 23.2842857,30 15,30 Z M15,0.519107139 C7.00232142,0.519107139 0.519107139,7.00232142 0.519107139,15 C0.519107139,22.9976786 7.00232142,29.4808929 15,29.4808929 C22.9976786,29.4808929 29.4808929,22.9976786 29.4808929,15 C29.4808929,7.00232142 22.9976786,0.519107139 15,0.519107139 Z" id="Shape"></path>
                <g id="Group" transform="translate(6.000000, 6.000000)">
                    <path d="M16.2991295,9.8582935 L1.70551575,9.8582935 C1.21465779,9.8582935 0.816684962,9.46028521 0.816684962,8.96942725 C0.816684962,8.47856928 1.21465779,8.08056099 1.70551575,8.08056099 L16.2991295,8.08056099 C16.7900229,8.08056099 17.1879957,8.47853381 17.1879957,8.96942725 C17.1879957,9.46028521 16.7900229,9.8582935 16.2991295,9.8582935 Z" id="Shape"></path>
                    <path d="M9.00207424,17.1550649 C8.51125174,17.1550649 8.11327892,16.757092 8.11327892,16.2661986 L8.11327895,1.67262037 C8.11327895,1.18197529 8.51125178,0.783754116 9.00207427,0.783754116 C9.49296774,0.783754116 9.89094053,1.18197529 9.89094053,1.67262037 L9.89094053,16.2661986 C9.89094053,16.757092 9.4929677,17.1550649 9.00207424,17.1550649 Z" id="Shape"></path>
                </g>
            </g>
        </g>
    </g>
</svg>