<?xml version="1.0" standalone="no"?><!DOCTYPE svg PUBLIC "-//W3C//DTD SVG 1.1//EN" "http://www.w3.org/Graphics/SVG/1.1/DTD/svg11.dtd"><svg t="1500701686363" class="icon" style="" viewBox="0 0 1024 1024" version="1.1" xmlns="http://www.w3.org/2000/svg" p-id="1869" xmlns:xlink="http://www.w3.org/1999/xlink" width="200" height="200"><defs><style type="text/css"></style></defs><path d="M512.174 646.382c92.711 0 167.867-76.994 167.867-171.955v-238.17c0-94.982-75.156-171.953-167.867-171.953s-167.866 76.97-167.866 171.954v238.17c0 94.96 75.156 171.954 167.866 171.954z" p-id="1870"></path><path d="M756.246 406.682c-19.5 0-35.326 15.237-35.326 34.037v46.628c0 111.05-93.694 201.443-208.899 201.443s-208.92-90.392-208.92-201.443v-46.628c0-18.8-15.805-34.037-35.348-34.037-19.456 0-35.283 15.237-35.283 34.037v46.628c0 138.333 106.636 255.713 245.974 270.883v156.696h-89.54c-20.003 0-44.77 2.58-44.77 22.385 0 19.763 24.767 22.384 44.77 22.384H635.14c19.98 0 44.77-2.622 44.77-22.384 0-19.805-24.79-22.385-44.77-22.385H545.6V758.23c134.835-19.15 245.929-135.632 245.929-270.883v-46.628c0-18.8-15.784-34.037-35.283-34.037z" p-id="1871"></path></svg>