<?xml version="1.0" encoding="UTF-8"?>
<svg width="30px" height="30px" viewBox="0 0 30 30" version="1.1" xmlns="http://www.w3.org/2000/svg" xmlns:xlink="http://www.w3.org/1999/xlink">
    <!-- Generator: Sketch 42 (36781) - http://www.bohemiancoding.com/sketch -->
    <title>12 图标/30px/会话框/语音</title>
    <desc>Created with Sketch.</desc>
    <defs></defs>
    <g id="Symbols" stroke="none" stroke-width="1" fill="none" fill-rule="evenodd">
        <g id="12-图标/30px/会话框/语音" fill="#666666">
            <g id="键盘">
                <path d="M15,30 C6.71571428,30 0,23.2842857 0,15 C0,6.71571428 6.71571428,0 15,0 C23.2842857,0 30,6.71571428 30,15 C30,23.2842857 23.2842857,30 15,30 Z M15,0.519107139 C7.00232142,0.519107139 0.519107139,7.00232142 0.519107139,15 C0.519107139,22.9976786 7.00232142,29.4808929 15,29.4808929 C22.9976786,29.4808929 29.4808929,22.9976786 29.4808929,15 C29.4808929,7.00232142 22.9976786,0.519107139 15,0.519107139 Z" id="Shape"></path>
                <path d="M12.1373811,24.7803952 C10.1576446,22.2224918 8.40417586,19.3238858 8.40417586,15.9700439 C7.95173898,11.9340395 9.64833612,7.95563117 12.4767006,5.1701427 C12.9860419,5.73849616 13.5515633,6.24991218 14.0601803,6.81826564 C12.2504657,9.14855104 10.7231989,11.877135 10.7231989,14.8895829 C10.5539014,18.0165313 12.0811682,20.8589572 14.0039673,23.1892097 C13.3815743,23.7006586 12.75984,24.2689791 12.1373811,24.7803952 Z M17.850323,19.2670143 L16.2099388,20.9151372 C14.7395436,19.2101098 13.4953833,17.2205598 13.7215853,14.8902744 C13.5515633,12.559989 14.9657456,10.6842481 16.3230233,8.97852909 C16.8323647,9.60378705 17.3978861,10.2859166 17.906503,10.9111745 C17.1147467,12.104753 16.0398839,13.3552689 16.0967884,14.8902744 C15.9274909,16.5383974 17.0585337,17.9026894 17.85029,19.2669813 L17.85029,19.2669813 L17.850323,19.2670143 Z M22.1490496,15.0041164 C21.2442088,15.9131723 20.339335,16.7660483 19.3775568,17.6189243 C18.9820244,16.7660812 18.5288959,15.8569923 18.302694,14.9472119 C18.4727159,14.0381559 19.1513548,13.2990889 19.6599717,12.560022 C20.5086325,13.3552689 21.3572604,14.1512075 22.1490167,15.0041164 L22.1490167,15.0041164 L22.1490496,15.0041164 Z" id="Shape"></path>
            </g>
        </g>
    </g>
</svg>