<?xml version="1.0" standalone="no"?><!DOCTYPE svg PUBLIC "-//W3C//DTD SVG 1.1//EN" "http://www.w3.org/Graphics/SVG/1.1/DTD/svg11.dtd"><svg t="1516167885979" class="icon" style="" viewBox="0 0 1152 1024" version="1.1" xmlns="http://www.w3.org/2000/svg" p-id="7180" xmlns:xlink="http://www.w3.org/1999/xlink" width="225" height="200"><defs><style type="text/css"></style></defs><path d="M1024 1024H128c-70.4 0-128-57.6-128-128V128c0-70.4 57.6-128 128-128h896c70.4 0 128 57.6 128 128v768c0 70.4-57.6 128-128 128zM128 64c-38.4 0-64 25.6-64 64v768c0 38.4 25.6 64 64 64h896c38.4 0 64-25.6 64-64V128c0-38.4-25.6-64-64-64H128z" fill="#FFFFFF" p-id="7181"></path><path d="M435.2 544C339.2 544 256 467.2 256 371.2s76.8-172.8 179.2-172.8 179.2 76.8 179.2 172.8-83.2 172.8-179.2 172.8z m0-281.6c-64 0-115.2 51.2-115.2 108.8s51.2 108.8 115.2 108.8 115.2-51.2 115.2-108.8-57.6-108.8-115.2-108.8z" fill="#FFFFFF" p-id="7182"></path><path d="M691.2 800c-19.2 0-32-12.8-32-32 0-121.6-102.4-224-224-224s-224 102.4-224 224c0 19.2-12.8 32-32 32s-32-12.8-32-32c0-160 128-288 288-288s288 128 288 288c0 19.2-12.8 32-32 32zM1024 544H748.8c-19.2 0-32-12.8-32-32s12.8-32 32-32H1024c19.2 0 32 12.8 32 32s-19.2 32-32 32zM1024 313.6H748.8c-19.2 0-32-12.8-32-32s12.8-32 32-32H1024c19.2 0 32 12.8 32 32s-19.2 32-32 32zM1011.2 774.4H806.4c-19.2 0-32-12.8-32-32s12.8-32 32-32h204.8c19.2 0 32 12.8 32 32s-12.8 32-32 32z" fill="#FFFFFF" p-id="7183"></path></svg>