<?xml version="1.0" encoding="utf-8"?>
<!-- Generator: Adobe Illustrator 19.0.0, SVG Export Plug-In . SVG Version: 6.00 Build 0)  -->
<svg version="1.1" id="图层_1" xmlns="http://www.w3.org/2000/svg" xmlns:xlink="http://www.w3.org/1999/xlink" x="0px" y="0px"
	 viewBox="-288 412.9 18 16" style="enable-background:new -288 412.9 18 16;" xml:space="preserve">
<style type="text/css">
	.st0{fill:#999999;}
</style>
<title>account1</title>
<desc>Created with Sketch.</desc>
<g id="课程管理" transform="translate(-52.000000, -108.000000)">
	<g id="account1" transform="translate(52.000000, 108.000000)">
		<g id="Rectangle-6">
			<path class="st0" d="M-271.5,428.9h-15c-0.8,0-1.5-0.7-1.5-1.5v-13c0-0.8,0.7-1.5,1.5-1.5h15c0.8,0,1.5,0.7,1.5,1.5v13
				C-270,428.2-270.7,428.9-271.5,428.9z M-286.5,413.9c-0.3,0-0.5,0.2-0.5,0.5v13c0,0.3,0.2,0.5,0.5,0.5h15c0.3,0,0.5-0.2,0.5-0.5
				v-13c0-0.3-0.2-0.5-0.5-0.5H-286.5z"/>
		</g>
		<g id="Oval">
			<path class="st0" d="M-281.2,421.4c-1.5,0-2.8-1.2-2.8-2.7s1.2-2.7,2.8-2.7s2.8,1.2,2.8,2.7S-279.7,421.4-281.2,421.4z
				 M-281.2,416.9c-1,0-1.8,0.8-1.8,1.7s0.8,1.7,1.8,1.7s1.8-0.8,1.8-1.7S-280.3,416.9-281.2,416.9z"/>
		</g>
		<g id="Oval-2">
			<path class="st0" d="M-277.2,425.4c-0.3,0-0.5-0.2-0.5-0.5c0-1.9-1.6-3.5-3.5-3.5s-3.5,1.6-3.5,3.5c0,0.3-0.2,0.5-0.5,0.5
				s-0.5-0.2-0.5-0.5c0-2.5,2-4.5,4.5-4.5s4.5,2,4.5,4.5C-276.7,425.2-276.9,425.4-277.2,425.4z"/>
		</g>
		<g id="Path-4-Copy">
			<path class="st0" d="M-272,421.4h-4.2c-0.3,0-0.5-0.2-0.5-0.5s0.2-0.5,0.5-0.5h4.2c0.3,0,0.5,0.2,0.5,0.5S-271.8,421.4-272,421.4
				z"/>
		</g>
		<g id="Path-4-Copy-3">
			<path class="st0" d="M-272,417.8h-4.2c-0.3,0-0.5-0.2-0.5-0.5s0.2-0.5,0.5-0.5h4.2c0.3,0,0.5,0.2,0.5,0.5S-271.8,417.8-272,417.8
				z"/>
		</g>
		<g id="Path-4-Copy-2">
			<path class="st0" d="M-272.2,424.9h-3.2c-0.3,0-0.5-0.2-0.5-0.5s0.2-0.5,0.5-0.5h3.2c0.3,0,0.5,0.2,0.5,0.5
				S-271.9,424.9-272.2,424.9z"/>
		</g>
	</g>
</g>
</svg>
