<?xml version="1.0" standalone="no"?><!DOCTYPE svg PUBLIC "-//W3C//DTD SVG 1.1//EN" "http://www.w3.org/Graphics/SVG/1.1/DTD/svg11.dtd"><svg class="icon" width="200px" height="200.00px" viewBox="0 0 1024 1024" version="1.1" xmlns="http://www.w3.org/2000/svg"><path d="M647.168 712.704h245.76v81.92h-245.76zM811.008 630.784v245.76h-81.92v-245.76zM108.3904 887.4496c-24.4736 0-44.3904-21.1968-44.3904-47.36V409.6H896V183.9104c0-63.7952-48.64-115.6608-108.3904-115.6608H704V0H640v68.2496H256V0H192v68.2496H108.3904C48.64 68.2496 0 120.1152 0 183.9104v656.1792c0 63.7952 48.64 115.6608 108.3904 115.6608h341.7088c17.7152 0 32-15.2576 32-34.1504 0-18.8928-14.336-34.1504-32-34.1504H108.3904zM384 512v68.2496H160V512H384z m0 204.8v68.2496H160V716.8H384zM768 477.8496c-68.4032 0-132.7104 28.3648-180.992 80.0256C538.624 609.4848 512 677.9904 512 750.8992c0 73.0112 26.624 141.568 75.008 193.1264C635.392 995.6352 699.648 1024 768 1024c68.4032 0 132.7104-28.3648 180.992-79.9744C997.376 892.3648 1024 823.9104 1024 750.9504c0-72.96-26.624-141.568-75.008-193.0752C900.608 506.2144 836.4032 477.8496 768 477.8496z m-192 273.1008c0-112.9984 86.1184-204.8 192-204.8s192 91.8016 192 204.8c0 112.9472-86.1184 204.8-192 204.8s-192-91.8528-192-204.8z" /></svg>