<?xml version="1.0" standalone="no"?><!DOCTYPE svg PUBLIC "-//W3C//DTD SVG 1.1//EN" "http://www.w3.org/Graphics/SVG/1.1/DTD/svg11.dtd"><svg t="1516248351802" class="icon" style="" viewBox="0 0 1024 1024" version="1.1" xmlns="http://www.w3.org/2000/svg" p-id="1612" xmlns:xlink="http://www.w3.org/1999/xlink" width="200" height="200"><defs><style type="text/css"></style></defs><path d="M512 993.882353c-265.035294 0-481.882353-216.847059-481.882353-481.882353s216.847059-481.882353 481.882353-481.882353 481.882353 216.847059 481.882353 481.882353-216.847059 481.882353-481.882353 481.882353z m0-903.529412c-234.917647 0-421.647059 186.729412-421.647059 421.647059s186.729412 421.647059 421.647059 421.647059 421.647059-186.729412 421.647059-421.647059-186.729412-421.647059-421.647059-421.647059z" fill="#F56C6C" p-id="1613"></path><path d="M361.411765 620.423529L620.423529 361.411765c12.047059-12.047059 30.117647-12.047059 42.164706 0 12.047059 12.047059 12.047059 30.117647 0 42.164706L403.576471 662.588235c-12.047059 12.047059-30.117647 12.047059-42.164706 0-12.047059-12.047059-12.047059-30.117647 0-42.164706z" fill="#F56C6C" p-id="1614"></path><path d="M620.423529 662.588235L361.411765 403.576471c-12.047059-12.047059-12.047059-30.117647 0-42.164706 12.047059-12.047059 30.117647-12.047059 42.164706 0L662.588235 620.423529c12.047059 12.047059 12.047059 30.117647 0 42.164706-12.047059 12.047059-30.117647 12.047059-42.164706 0z" fill="#F56C6C" p-id="1615"></path></svg>