<?xml version="1.0" standalone="no"?><!DOCTYPE svg PUBLIC "-//W3C//DTD SVG 1.1//EN" "http://www.w3.org/Graphics/SVG/1.1/DTD/svg11.dtd"><svg t="1516248346841" class="icon" style="" viewBox="0 0 1024 1024" version="1.1" xmlns="http://www.w3.org/2000/svg" p-id="1494" xmlns:xlink="http://www.w3.org/1999/xlink" width="200" height="200"><defs><style type="text/css"></style></defs><path d="M512 1024c-281.6 0-512-230.4-512-512s230.4-512 512-512 512 230.4 512 512-230.4 512-512 512zM512 64c-249.6 0-448 198.4-448 448s198.4 448 448 448 448-198.4 448-448-198.4-448-448-448z" fill="#F9BC49" p-id="1495"></path><path d="M512 224c19.2 0 32 12.8 32 32v320c0 19.2-12.8 32-32 32s-32-12.8-32-32v-320c0-19.2 12.8-32 32-32z" fill="#F9BC49" p-id="1496"></path><path d="M480 576c0-19.2 12.8-32 32-32h192c19.2 0 32 12.8 32 32s-12.8 32-32 32H512c-19.2 0-32-12.8-32-32z" fill="#F9BC49" p-id="1497"></path></svg>