<?xml version="1.0" standalone="no"?><!DOCTYPE svg PUBLIC "-//W3C//DTD SVG 1.1//EN" "http://www.w3.org/Graphics/SVG/1.1/DTD/svg11.dtd"><svg t="1516248358350" class="icon" style="" viewBox="0 0 1024 1024" version="1.1" xmlns="http://www.w3.org/2000/svg" p-id="1730" xmlns:xlink="http://www.w3.org/1999/xlink" width="200" height="200"><defs><style type="text/css"></style></defs><path d="M512 993.882353c-265.035294 0-481.882353-216.847059-481.882353-481.882353s216.847059-481.882353 481.882353-481.882353 481.882353 216.847059 481.882353 481.882353-216.847059 481.882353-481.882353 481.882353z m0-903.529412c-234.917647 0-421.647059 186.729412-421.647059 421.647059s186.729412 421.647059 421.647059 421.647059 421.647059-186.729412 421.647059-421.647059-186.729412-421.647059-421.647059-421.647059z"  p-id="1731"></path><path d="M301.176471 524.047059l168.658823 168.658823c12.047059 12.047059 12.047059 30.117647 0 42.164706-12.047059 12.047059-30.117647 12.047059-42.164706 0l-168.658823-168.658823c-12.047059-12.047059-12.047059-30.117647 0-42.164706 12.047059-12.047059 30.117647-12.047059 42.164706 0z" fill="#46A0FC" p-id="1732"></path><path d="M427.670588 692.705882L722.823529 397.552941c12.047059-12.047059 30.117647-12.047059 42.164706 0 12.047059 12.047059 12.047059 30.117647 0 42.164706l-295.152941 295.152941c-12.047059 12.047059-30.117647 12.047059-42.164706 0-12.047059-12.047059-12.047059-30.117647 0-42.164706z"  p-id="1733"></path></svg>