<?xml version="1.0" standalone="no"?><!DOCTYPE svg PUBLIC "-//W3C//DTD SVG 1.1//EN" "http://www.w3.org/Graphics/SVG/1.1/DTD/svg11.dtd"><svg t="1516167874155" class="icon" style="" viewBox="0 0 1024 1024" version="1.1" xmlns="http://www.w3.org/2000/svg" p-id="6823" xmlns:xlink="http://www.w3.org/1999/xlink" width="200" height="200"><defs><style type="text/css"></style></defs><path d="M910.222222 796.444444H113.777778c-62.577778 0-113.777778-51.2-113.777778-113.777777v-455.111111c0-62.577778 51.2-113.777778 113.777778-113.777778h796.444444c62.577778 0 113.777778 51.2 113.777778 113.777778v455.111111c0 62.577778-51.2 113.777778-113.777778 113.777777zM113.777778 170.666667c-34.133333 0-56.888889 22.755556-56.888889 56.888889v455.111111c0 34.133333 22.755556 56.888889 56.888889 56.888889h796.444444c34.133333 0 56.888889-22.755556 56.888889-56.888889v-455.111111c0-34.133333-22.755556-56.888889-56.888889-56.888889H113.777778z" fill="#FFFFFF" p-id="6824"></path><path d="M489.244444 750.933333c11.377778 5.688889 17.066667 22.755556 11.377778 28.444445l-136.533333 182.044444c-11.377778 11.377778-22.755556 17.066667-34.133333 5.688889-11.377778-5.688889-17.066667-22.755556-5.688889-28.444444L455.111111 756.622222c5.688889-11.377778 22.755556-11.377778 34.133333-5.688889z" fill="#FFFFFF" p-id="6825"></path><path d="M494.933333 762.311111c11.377778-11.377778 22.755556-11.377778 34.133334 0l125.155555 164.977778c11.377778 11.377778 5.688889 28.444444 0 39.822222-11.377778 11.377778-22.755556 11.377778-34.133333 0l-125.155556-164.977778c-11.377778-11.377778-11.377778-28.444444 0-39.822222zM426.666667 0h170.666666c17.066667 0 28.444444 11.377778 28.444445 28.444444V113.777778c0 17.066667-11.377778 28.444444-28.444445 28.444444h-170.666666c-17.066667 0-28.444444-11.377778-28.444445-28.444444V28.444444c0-17.066667 11.377778-28.444444 28.444445-28.444444zM341.333333 654.222222c-108.088889 0-199.111111-91.022222-199.111111-199.111111s91.022222-199.111111 199.111111-199.111111 199.111111 91.022222 199.111111 199.111111-91.022222 199.111111-199.111111 199.111111z m0-341.333333c-79.644444 0-142.222222 62.577778-142.222222 142.222222s62.577778 142.222222 142.222222 142.222222 142.222222-62.577778 142.222223-142.222222-62.577778-142.222222-142.222223-142.222222z" fill="#FFFFFF" p-id="6826"></path><path d="M352.711111 329.955556c17.066667 0 28.444444 11.377778 28.444445 28.444444v85.333333c0 17.066667-11.377778 28.444444-28.444445 28.444445s-28.444444-11.377778-28.444444-28.444445v-85.333333c0-11.377778 11.377778-28.444444 28.444444-28.444444z" fill="#FFFFFF" p-id="6827"></path><path d="M329.955556 449.422222c0-17.066667 11.377778-28.444444 28.444444-28.444444H398.222222c17.066667 0 28.444444 11.377778 28.444445 28.444444s-11.377778 28.444444-28.444445 28.444445h-39.822222c-17.066667 0-28.444444-17.066667-28.444444-28.444445z" fill="#FFFFFF" p-id="6828"></path><path d="M654.222222 284.444444h170.666667c17.066667 0 28.444444 11.377778 28.444444 28.444445s-11.377778 28.444444-28.444444 28.444444h-170.666667c-17.066667 0-28.444444-11.377778-28.444444-28.444444s11.377778-28.444444 28.444444-28.444445zM654.222222 426.666667h170.666667c17.066667 0 28.444444 11.377778 28.444444 28.444444s-11.377778 28.444444-28.444444 28.444445h-170.666667c-17.066667 0-28.444444-11.377778-28.444444-28.444445s11.377778-28.444444 28.444444-28.444444z" fill="#FFFFFF" p-id="6829"></path><path d="M654.222222 568.888889h170.666667c17.066667 0 28.444444 11.377778 28.444444 28.444444s-11.377778 28.444444-28.444444 28.444445h-170.666667c-17.066667 0-28.444444-11.377778-28.444444-28.444445s11.377778-28.444444 28.444444-28.444444z" fill="#FFFFFF" p-id="6830"></path></svg>