<?xml version="1.0" standalone="no"?><!DOCTYPE svg PUBLIC "-//W3C//DTD SVG 1.1//EN" "http://www.w3.org/Graphics/SVG/1.1/DTD/svg11.dtd"><svg t="1516195014383" class="icon" style="" viewBox="0 0 1024 1024" version="1.1" xmlns="http://www.w3.org/2000/svg" p-id="1507" xmlns:xlink="http://www.w3.org/1999/xlink" width="200" height="200"><defs><style type="text/css"></style></defs><path d="M963.754667 1024H60.302222C26.965333 1024 0 994.702222 0 958.577778V283.591111c0-36.124444 26.965333-65.422222 60.245333-65.422222h136.533334a29.866667 29.866667 0 0 0 26.453333-17.180445L305.891556 34.360889A59.733333 59.733333 0 0 1 358.968889 0h306.119111c22.186667 0 42.496 13.198222 53.020444 34.360889l82.659556 166.627555a29.866667 29.866667 0 0 0 26.510222 17.180445h136.533334c33.223111 0 60.188444 29.297778 60.188444 65.422222V958.577778c0 36.124444-26.965333 65.422222-60.245333 65.422222zM150.584889 893.098667h722.830222c16.611556 0 30.151111-14.677333 30.151111-32.711111V381.724444c0-18.090667-13.539556-32.711111-30.151111-32.711111h-100.067555c-22.129778 0-42.496-13.198222-53.020445-34.417777L637.724444 148.081778a29.866667 29.866667 0 0 0-26.510222-17.180445H412.842667a29.923556 29.923556 0 0 0-26.510223 17.180445L303.672889 314.652444c-10.524444 21.219556-30.890667 34.417778-53.020445 34.417778H150.584889c-16.611556 0-30.151111 14.620444-30.151111 32.711111v478.606223c0 18.033778 13.539556 32.711111 30.151111 32.711111z" p-id="1508"></path><path d="M512 739.555556c-94.094222 0-170.666667-76.572444-170.666667-170.666667 0-94.151111 76.572444-170.666667 170.666667-170.666667s170.666667 76.515556 170.666667 170.666667c0 94.094222-76.572444 170.666667-170.666667 170.666667z m0-237.454223a66.844444 66.844444 0 0 0 0 133.575111 66.844444 66.844444 0 0 0 0-133.575111z" p-id="1509"></path></svg>