<?xml version="1.0" standalone="no"?><!DOCTYPE svg PUBLIC "-//W3C//DTD SVG 1.1//EN" "http://www.w3.org/Graphics/SVG/1.1/DTD/svg11.dtd"><svg t="1516167852416" class="icon" style="" viewBox="0 0 1024 1024" version="1.1" xmlns="http://www.w3.org/2000/svg" p-id="6235" xmlns:xlink="http://www.w3.org/1999/xlink" width="200" height="200"><defs><style type="text/css"></style></defs><path d="M625.777778 1024h-483.555556c-45.511111 0-85.333333-39.822222-85.333333-85.333333v-853.333334c0-45.511111 39.822222-85.333333 85.333333-85.333333h398.222222C585.955556 0 625.777778 39.822222 625.777778 85.333333V1024zM142.222222 56.888889c-17.066667 0-28.444444 11.377778-28.444444 28.444444v853.333334c0 17.066667 11.377778 28.444444 28.444444 28.444444H568.888889V85.333333c0-17.066667-11.377778-28.444444-28.444445-28.444444h-398.222222z" fill="#FFFFFF" p-id="6236"></path><path d="M227.555556 284.444444h56.888888v56.888889h-56.888888zM227.555556 170.666667h56.888888v56.888889h-56.888888zM227.555556 398.222222h56.888888v56.888889h-56.888888zM227.555556 512h56.888888v56.888889h-56.888888zM227.555556 625.777778h56.888888v56.888889h-56.888888zM227.555556 739.555556h56.888888v56.888888h-56.888888zM227.555556 853.333333h56.888888v56.888889h-56.888888zM398.222222 284.444444h56.888889v56.888889H398.222222zM398.222222 170.666667h56.888889v56.888889H398.222222zM398.222222 398.222222h56.888889v56.888889H398.222222zM398.222222 512h56.888889v56.888889H398.222222zM398.222222 625.777778h56.888889v56.888889H398.222222zM398.222222 739.555556h56.888889v56.888888H398.222222zM398.222222 853.333333h56.888889v56.888889H398.222222zM881.777778 1024H568.888889V284.444444h312.888889c45.511111 0 85.333333 39.822222 85.333333 85.333334v568.888889c0 45.511111-39.822222 85.333333-85.333333 85.333333zM625.777778 967.111111h256c17.066667 0 28.444444-11.377778 28.444444-28.444444v-568.888889c0-17.066667-11.377778-28.444444-28.444444-28.444445H625.777778v625.777778z" fill="#FFFFFF" p-id="6237"></path><path d="M682.666667 512h56.888889v56.888889H682.666667zM682.666667 398.222222h56.888889v56.888889H682.666667zM682.666667 625.777778h56.888889v56.888889H682.666667zM682.666667 739.555556h56.888889v56.888888H682.666667zM682.666667 853.333333h56.888889v56.888889H682.666667zM796.444444 512h56.888889v56.888889H796.444444zM796.444444 398.222222h56.888889v56.888889H796.444444zM796.444444 625.777778h56.888889v56.888889H796.444444zM796.444444 739.555556h56.888889v56.888888H796.444444zM796.444444 853.333333h56.888889v56.888889H796.444444z" fill="#FFFFFF" p-id="6238"></path></svg>