<?xml version="1.0" standalone="no"?><!DOCTYPE svg PUBLIC "-//W3C//DTD SVG 1.1//EN" "http://www.w3.org/Graphics/SVG/1.1/DTD/svg11.dtd"><svg t="1516167881762" class="icon" style="" viewBox="0 0 1024 1024" version="1.1" xmlns="http://www.w3.org/2000/svg" p-id="7063" xmlns:xlink="http://www.w3.org/1999/xlink" width="200" height="200"><defs><style type="text/css"></style></defs><path d="M881.777778 1024h-739.555556c-45.511111 0-85.333333-39.822222-85.333333-85.333333v-853.333334c0-45.511111 39.822222-85.333333 85.333333-85.333333h739.555556c45.511111 0 85.333333 39.822222 85.333333 85.333333v853.333334c0 45.511111-39.822222 85.333333-85.333333 85.333333z m-739.555556-967.111111c-17.066667 0-28.444444 11.377778-28.444444 28.444444v853.333334c0 17.066667 11.377778 28.444444 28.444444 28.444444h739.555556c17.066667 0 28.444444-11.377778 28.444444-28.444444v-853.333334c0-17.066667-11.377778-28.444444-28.444444-28.444444h-739.555556z" fill="#FFFFFF" p-id="7064"></path><path d="M711.111111 739.555556h-398.222222c-45.511111 0-85.333333-39.822222-85.333333-85.333334v-170.666666c0-45.511111 39.822222-85.333333 85.333333-85.333334h398.222222c45.511111 0 85.333333 39.822222 85.333333 85.333334v170.666666c0 45.511111-39.822222 85.333333-85.333333 85.333334z m-398.222222-284.444445c-17.066667 0-28.444444 11.377778-28.444445 28.444445v170.666666c0 17.066667 11.377778 28.444444 28.444445 28.444445h398.222222c17.066667 0 28.444444-11.377778 28.444445-28.444445v-170.666666c0-17.066667-11.377778-28.444444-28.444445-28.444445h-398.222222zM256 796.444444h512c17.066667 0 28.444444 11.377778 28.444444 28.444445s-11.377778 28.444444-28.444444 28.444444h-512c-17.066667 0-28.444444-11.377778-28.444444-28.444444s11.377778-28.444444 28.444444-28.444445zM796.444444 256H227.555556c-45.511111 0-85.333333-39.822222-85.333334-85.333333V113.777778h56.888889v56.888889c0 17.066667 11.377778 28.444444 28.444445 28.444444H796.444444c17.066667 0 28.444444-11.377778 28.444445-28.444444V113.777778h56.888889v56.888889c0 45.511111-39.822222 85.333333-85.333334 85.333333z" fill="#FFFFFF" p-id="7065"></path></svg>