<?xml version="1.0" standalone="no"?><!DOCTYPE svg PUBLIC "-//W3C//DTD SVG 1.1//EN" "http://www.w3.org/Graphics/SVG/1.1/DTD/svg11.dtd"><svg t="1516194982809" class="icon" style="" viewBox="0 0 1024 1024" version="1.1" xmlns="http://www.w3.org/2000/svg" p-id="1059" xmlns:xlink="http://www.w3.org/1999/xlink" width="200" height="200"><defs><style type="text/css"></style></defs><path d="M102.4 355.976533c0-19.080533 2.798933-32.699733 8.328533-40.789333 5.563733-8.123733 17.885867-12.1856 37.034667-12.1856h118.442667v529.408H215.381333c-13.585067 0-27.0336-0.136533-40.277333-0.512-13.312-0.341333-22.391467-0.546133-27.306667-0.546133-16.6912 0.7168-28.3648-2.4576-35.157333-9.489067-6.826667-7.099733-10.205867-20.48-10.205867-40.277333v-152.439467c0-7.7824 1.092267-13.585067 3.242667-17.476267 2.1504-3.8912 6.656-6.519467 13.4144-7.918933a25.429333 25.429333 0 0 0 10.205867-3.208533 45.738667 45.738667 0 0 0 12.9024-10.069334c4.369067-4.573867 8.055467-10.581333 11.127466-17.988266 3.072-7.406933 4.642133-16.384 4.642134-26.965334 0-16.247467-3.857067-29.013333-11.605334-38.161066-7.68-9.147733-15.872-14.472533-24.507733-15.906134-6.7584-1.365333-11.707733-3.6864-14.813867-6.826666-3.072-3.1744-4.608-8.669867-4.608-16.418134v-112.2304zM179.2 255.317333v-27.511466c0-14.1312 4.778667-27.204267 14.336-39.185067 9.591467-11.9808 19.933867-17.988267 31.061333-17.988267h127.6928v84.6848h-173.056z m754.346667 229.7856a16.042667 16.042667 0 0 0-10.6496 8.977067 35.566933 35.566933 0 0 0-3.242667 15.36c0 5.666133 1.058133 11.093333 3.242667 16.418133a19.456 19.456 0 0 0 10.615466 11.127467c4.949333 2.116267 8.8064 6.3488 11.605334 12.731733 2.730667 6.3488 4.3008 13.0048 4.608 20.104534a62.122667 62.122667 0 0 1-2.321067 20.104533c-1.8432 6.3488-4.608 10.922667-8.328533 13.755733-12.356267 8.4992-18.5344 17.988267-18.5344 28.603734 0 10.581333 6.178133 21.162667 18.5344 31.744 2.4576 2.1504 4.778667 6.007467 6.929066 11.6736 2.184533 5.632 3.242667 11.264 3.242667 16.930133 0 5.632-1.2288 10.581333-3.6864 14.813867-2.491733 4.232533-6.826667 6.3488-12.970667 6.3488h-49.9712c-3.720533 0-5.700267-0.341333-6.007466-1.058134-0.341333-0.682667 0.136533-1.9456 1.365333-3.6864 1.262933-1.774933 2.798933-3.720533 4.642133-5.802666a28.2624 28.2624 0 0 0 4.642134-7.406934c3.072-9.898667 3.072-18.397867 0-25.429333a41.8816 41.8816 0 0 0-15.735467-18.0224 23.688533 23.688533 0 0 1-10.6496-13.2096 47.240533 47.240533 0 0 1-2.7648-18.5344c0.273067-6.3488 1.365333-12.014933 3.208533-16.964267a19.456 19.456 0 0 1 8.328534-10.581333 21.128533 21.128533 0 0 0 11.127466-11.6736c2.4576-5.632 3.720533-11.605333 3.720534-17.988267 0-6.3488-0.955733-12.151467-2.833067-17.476266a19.456 19.456 0 0 0-8.2944-11.093334 28.945067 28.945067 0 0 1-11.5712-12.6976 42.496 42.496 0 0 1-4.164267-19.080533c0-7.0656 1.2288-13.9264 3.6864-20.650667 2.491733-6.690133 6.485333-12.151467 12.049067-16.384a32.768 32.768 0 0 0 9.216-11.6736c2.491733-4.9152 3.8912-10.24 4.1984-15.872a37.717333 37.717333 0 0 0-2.7648-16.384 28.637867 28.637867 0 0 0-11.5712-13.277866 30.583467 30.583467 0 0 1-13.448533-15.325867 53.76 53.76 0 0 1-4.130134-20.650667c0-7.0656 1.365333-13.789867 4.130134-20.138666 2.798933-6.3488 6.656-11.264 11.605333-14.813867 10.478933-6.382933 16.1792-14.984533 17.1008-25.941333 0.955733-10.922667 0.170667-20.992-2.321067-30.139734a42.325333 42.325333 0 0 0-11.093333-19.114666 28.5696 28.5696 0 0 0-21.2992-8.430934H408.746667V170.666667h521.079466c4.3008 0 8.021333 1.7408 11.093334 5.290666a26.282667 26.282667 0 0 1 6.0416 12.6976 32.768 32.768 0 0 1-0.955734 15.36 26.0096 26.0096 0 0 1-8.8064 13.2096 48.64 48.64 0 0 0-9.693866 13.789867 43.793067 43.793067 0 0 0-4.608 17.476267c-0.341333 6.007467 0.443733 12.014933 2.286933 17.954133a21.9136 21.9136 0 0 0 10.205867 13.243733c6.7584 4.232533 11.844267 10.103467 15.2576 17.5104 3.413333 7.406933 5.085867 14.813867 5.085866 22.186667 0 7.4752-1.706667 14.336-5.085866 20.6848a30.378667 30.378667 0 0 1-14.336 13.755733 29.354667 29.354667 0 0 0-14.813867 12.1856 39.048533 39.048533 0 0 0-1.365333 36.010667c2.730667 6.007467 7.202133 11.093333 13.380266 15.36 6.144 4.1984 10.683733 9.898667 13.448534 16.930133a51.677867 51.677867 0 0 1-0.955734 40.789334c-2.730667 5.973333-6.929067 9.3184-12.4928 10.0352z m-120.32-15.906133a29.559467 29.559467 0 0 0-17.134934 12.219733c-4.027733 6.007467-6.178133 12.151467-6.485333 18.500267-0.341333 6.3488 1.2288 12.731733 4.608 19.0464 3.413333 6.3488 8.4992 10.9568 15.291733 13.789867 6.144 2.798933 10.820267 7.031467 13.892267 12.6976a41.0624 41.0624 0 0 1 1.8432 35.976533 26.0096 26.0096 0 0 1-11.127467 12.731733c-15.394133 8.465067-23.415467 18.705067-24.064 30.72-0.6144 11.9808 5.256533 21.504 17.6128 28.5696a31.744 31.744 0 0 1 13.4144 13.2096c3.3792 6.0416 5.2224 12.3904 5.5296 19.080534 0.341333 6.724267-0.750933 12.6976-3.208533 18.0224a20.992 20.992 0 0 1-12.049067 11.093333 30.6176 30.6176 0 0 0-17.1008 11.6736 33.3824 33.3824 0 0 0-6.485333 17.988267c-0.341333 6.3488 1.2288 12.6976 4.608 19.0464 3.413333 6.382933 8.8064 11.639467 16.213333 15.872a24.029867 24.029867 0 0 1 10.615467 13.277866c2.184533 5.973333 2.935467 11.810133 2.321067 17.476267a37.000533 37.000533 0 0 1-5.12 15.325867 12.868267 12.868267 0 0 1-11.502934 6.894933H320.8192V303.035733h489.608533c4.949333 0 8.772267 2.286933 11.5712 6.8608a32.426667 32.426667 0 0 1 4.608 15.36c0.341333 5.666133-0.750933 11.264-3.208533 16.964267a20.821333 20.821333 0 0 1-12.049067 11.605333 28.0576 28.0576 0 0 0-13.4144 10.581334c-3.413333 4.949333-5.393067 10.4448-6.007466 16.452266a29.525333 29.525333 0 0 0 3.6864 17.408c3.106133 5.700267 8.328533 9.9328 15.735466 12.731734a33.041067 33.041067 0 0 1 13.448534 12.731733c3.3792 5.632 5.2224 11.4688 5.5296 17.476267a32.3584 32.3584 0 0 1-3.720534 16.930133 22.869333 22.869333 0 0 1-13.380266 11.093333z m-223.061334 70.9632c-3.072 0-6.3488-0.341333-9.728-1.024-3.413333-0.750933-4.164267-2.8672-2.321066-6.382933 0.6144-1.4336 3.549867-6.3488 8.8064-14.813867 5.2224-8.4992 11.093333-17.5104 17.578666-26.999467 6.485333-9.557333 12.4928-18.5344 18.056534-26.999466 5.5296-8.465067 8.942933-13.789867 10.171733-15.872 3.072-5.666133 1.2288-12.3904-5.563733-20.138667a56.797867 56.797867 0 0 0-7.3728-6.382933 57.002667 57.002667 0 0 0-10.24-6.3488c-4.9152-2.116267-8.430933-2.423467-10.581334-1.024-2.184533 1.365333-4.8128 4.573867-7.8848 9.5232a31782.8096 31782.8096 0 0 0-24.9856 41.301333c-5.563733 9.147733-10.6496 17.442133-15.291733 24.849067a186.333867 186.333867 0 0 0-7.850667 13.243733c-1.262933 2.798933-3.549867 3.8912-6.929066 3.1744a8.9088 8.9088 0 0 1-6.9632-5.290667c-0.6144-1.365333-3.413333-5.461333-8.328534-12.151466a502.545067 502.545067 0 0 1-15.701333-22.766934c-5.597867-8.4992-10.990933-16.384-16.213333-23.8592a645.461333 645.461333 0 0 1-10.6496-15.325866c-5.563733-12.014933-11.434667-15.906133-17.578667-11.6736a86.016 86.016 0 0 0-11.605333 9.0112c-3.3792 3.1744-6.621867 5.802667-9.693867 7.953066-6.178133 4.949333-7.099733 11.298133-2.7648 19.0464 10.478933 14.1312 19.729067 27.204267 27.7504 39.185067 6.826667 9.898667 13.277867 19.421867 19.456 28.5696 6.144 9.216 9.8304 14.472533 11.093333 15.906133 1.2288 2.798933 0 4.232533-3.720533 4.232534h-11.093333c-3.072 0-7.5776 0.136533-13.448534 0.512-5.8368 0.341333-11.264 0.170667-16.1792-0.512a17.066667 17.066667 0 0 0-12.014933 4.232533c-3.072 2.798933-4.027733 6.382933-2.7648 10.581333 0.6144 2.833067 0.9216 7.0656 0.9216 12.6976v12.6976c0 3.584 0.887467 5.495467 2.730667 5.802667 1.877333 0.375467 4.027733 0.580267 6.519466 0.580267h53.6576c7.406933 0 11.093333 1.7408 11.093334 5.290666v20.138667c0 3.4816-0.6144 5.290667-1.809067 5.290667h-62.020267c-3.720533-0.7168-6.144 0.341333-7.406933 3.140266a42.666667 42.666667 0 0 0-2.7648 9.557334 27.648 27.648 0 0 0 0 10.069333c0.6144 3.140267 0.887467 5.802667 0.887467 7.918933 0 9.147733 4.027733 13.755733 12.049066 13.755734h55.534934c3.072 0 4.9152 0.546133 5.5296 1.570133a16.042667 16.042667 0 0 1 0.955733 6.894933c0.6144 3.515733 0.750933 9.898667 0.443733 19.080534-0.273067 9.216-0.443733 15.189333-0.443733 17.988266 0 7.7824 3.9936 11.6736 12.014933 11.6736h29.627734c4.949333 0 7.406933-1.774933 7.406933-5.3248v-42.325333c0-7.0656 2.7648-10.581333 8.328533-10.581333h8.328534c4.3008 0 9.1136-0.2048 14.336-0.546134 5.256533-0.341333 10.3424-0.546133 15.291733-0.546133h12.014933c8.635733 0 12.970667-3.515733 12.970667-10.581333v-23.313067c0-6.314667-3.072-9.5232-9.250133-9.5232h-53.691734c-6.178133 1.399467-9.250133 0-9.250133-4.232533 0-2.116267-0.136533-4.744533-0.477867-7.918934a97.416533 97.416533 0 0 1-0.443733-9.0112 7.168 7.168 0 0 1 3.208533-6.3488 12.561067 12.561067 0 0 1 6.9632-2.116266h54.613334c6.144 0 9.250133-2.4576 9.250133-7.406934v-25.429333a13.994667 13.994667 0 0 0-3.242667-8.465067 9.557333 9.557333 0 0 0-7.850666-4.232533h-31.470934z" p-id="1060"></path></svg>