<?xml version="1.0" encoding="UTF-8"?>
<!DOCTYPE svg PUBLIC "-//W3C//DTD SVG 1.1//EN" "http://www.w3.org/Graphics/SVG/1.1/DTD/svg11.dtd">
<svg t="1516085631948" class="icon" style="" viewBox="0 0 1024 1024" version="1.1" xmlns="http://www.w3.org/2000/svg" p-id="2462" xmlns:xlink="http://www.w3.org/1999/xlink" width="50" height="50">
    <defs>
        <style type="text/css"></style>
    </defs>
    <g stroke="none" stroke-width="1" fill="none" fill-rule="evenodd" transform="translate(-25.000000, -106.000000)">
        <g id="course" transform="translate(25.000000, 106.000000)">
            <path d="M1.1604403,1.45881134 C1.10876115,1.44130264 1.05456454,1.43237117 1,1.43237117 C0.723857625,1.43237117 0.5,1.65622879 0.5,1.93237117 L0.5,14.2195466 C0.5,14.4338588 0.636580392,14.6243378 0.839559702,14.6931064 L8.8395597,17.4034765 C8.89123885,17.4209852 8.94543546,17.4299167 9,17.4299167 C9.27614237,17.4299167 9.5,17.2060591 9.5,16.9299167 L9.5,4.64274125 C9.5,4.42842903 9.36341961,4.23795005 9.1604403,4.16918142 L1.1604403,1.45881134 Z" id="Rectangle-14" stroke="#000000"></path>
            <path d="M10.1762853,1.57643427 C10.1199363,1.55520397 10.0602157,1.54432688 10,1.54432688 C9.72385763,1.54432688 9.5,1.76818451 9.5,2.04432688 L9.5,14.3183224 C9.5,14.5264618 9.62894088,14.7128311 9.82371472,14.786215 L16.8237147,17.4235657 C16.8800637,17.444796 16.9397843,17.4556731 17,17.4556731 C17.2761424,17.4556731 17.5,17.2318155 17.5,16.9556731 L17.5,4.68167763 C17.5,4.47353816 17.3710591,4.28716886 17.1762853,4.21378502 L10.1762853,1.57643427 Z" id="Rectangle-14-Copy" stroke="#000000" transform="translate(13.500000, 9.500000) scale(-1, 1) translate(-13.500000, -9.500000) "></path>
            <polygon id="Rectangle-2" fill="#000000" points="11.7 8.01666496 15.8286157 6.3 15.8286157 7.46473862 11.7 9.18140358"></polygon>
            <polygon id="Rectangle-2-Copy-2" fill="#000000" transform="translate(4.764308, 7.740702) scale(-1, 1) translate(-4.764308, -7.740702) " points="2.7 8.01666496 6.8286157 6.3 6.8286157 7.46473862 2.7 9.18140358"></polygon>
            <polygon id="Rectangle-2-Copy" fill="#000000" points="11.7 11.616665 15.8286157 9.9 15.8286157 11.0647386 11.7 12.7814036"></polygon>
            <polygon id="Rectangle-2-Copy-3" fill="#000000" transform="translate(4.764308, 11.340702) scale(-1, 1) translate(-4.764308, -11.340702) " points="2.7 11.616665 6.8286157 9.9 6.8286157 11.0647386 2.7 12.7814036"></polygon>
        </g>
    </g>
</svg>