<?xml version="1.0" standalone="no"?><!DOCTYPE svg PUBLIC "-//W3C//DTD SVG 1.1//EN" "http://www.w3.org/Graphics/SVG/1.1/DTD/svg11.dtd"><svg t="1516167869268" class="icon" style="" viewBox="0 0 1024 1024" version="1.1" xmlns="http://www.w3.org/2000/svg" p-id="6705" xmlns:xlink="http://www.w3.org/1999/xlink" width="200" height="200"><defs><style type="text/css"></style></defs><path d="M512 1018.311111c-5.688889 0-11.377778 0-17.066667-5.688889l-455.111111-153.6c-22.755556-5.688889-39.822222-28.444444-39.822222-51.2V108.088889c0-34.133333 39.822222-62.577778 73.955556-51.2l455.111111 153.6c22.755556 5.688889 39.822222 28.444444 39.822222 51.2v699.733333c0 34.133333-22.755556 56.888889-56.888889 56.888889zM68.266667 85.333333l-11.377778 22.755556v699.733333l455.111111 153.6V261.688889l-455.111111-153.6 11.377778-22.755556z" fill="#FFFFFF" p-id="6706"></path><path d="M568.888889 1024c-34.133333 0-56.888889-22.755556-56.888889-56.888889V267.377778c0-22.755556 17.066667-45.511111 34.133333-51.2l398.222223-147.911111c39.822222-17.066667 79.644444 11.377778 79.644444 45.511111v699.733333c0 22.755556-17.066667 45.511111-34.133333 51.2l-398.222223 147.911111c-11.377778 5.688889-17.066667 11.377778-22.755555 11.377778z m398.222222-910.222222l-398.222222 147.911111V967.111111l398.222222-147.911111V113.777778z" fill="#FFFFFF" p-id="6707"></path><path d="M665.6 455.111111l233.244444-96.711111v68.266667l-233.244444 96.711111zM386.844444 455.111111l-233.244444-96.711111v68.266667l233.244444 96.711111zM665.6 659.911111l233.244444-96.711111v68.266667l-233.244444 96.711111zM386.844444 659.911111l-233.244444-96.711111v68.266667l233.244444 96.711111z" fill="#FFFFFF" p-id="6708"></path></svg>