<?xml version="1.0" standalone="no"?><!DOCTYPE svg PUBLIC "-//W3C//DTD SVG 1.1//EN" "http://www.w3.org/Graphics/SVG/1.1/DTD/svg11.dtd"><svg class="icon" width="200px" height="200.00px" viewBox="0 0 1024 1024" version="1.1" xmlns="http://www.w3.org/2000/svg"><path  d="M675.521 306.64V144.934c0-1.067-0.23-2.079-0.289-3.15v-7.312h-0.578c-4.104-35.692-28.498-63.236-58.266-63.236H408.183c-29.769 0-54.162 27.544-58.266 63.236h-0.867v240.027h0.29v65.898c-0.059 1.211-0.29 2.309-0.29 3.466V899.12h0.867c4.104 35.724 28.497 63.237 58.266 63.237h208.206c29.768 0 54.162-27.514 58.266-63.237h0.578v-5.432h0.289V370.107h-0.289v-60.29c0.058-1.098 0.288-2.079 0.288-3.177zM431.42 179.355h161.732v411.096H431.42V179.355z m125.028 676.413c-27.282 15.723-60.981 15.723-88.324 0-27.397-15.837-44.22-44.97-44.22-76.586 0-31.563 16.823-60.753 44.22-76.534 27.343-15.778 61.042-15.778 88.324 0 27.399 15.781 44.22 44.972 44.22 76.534 0 31.616-16.82 60.749-44.22 76.586zM532.862 743.516c-12.717-7.399-28.438-7.399-41.212 0a41.17 41.17 0 0 0-20.578 35.666c0 22.773 18.438 41.211 41.214 41.211 22.771 0 41.215-18.438 41.215-41.211a41.096 41.096 0 0 0-20.639-35.666z m330.288 0a41.038 41.038 0 0 0-41.215 0c-12.772 7.34-20.577 20.924-20.577 35.666 0 14.737 7.805 28.322 20.577 35.662a41.038 41.038 0 0 0 41.215 0 41.102 41.102 0 0 0 20.637-35.662 41.098 41.098 0 0 0-20.637-35.666zM1005.751 306.64V144.934c0-1.067-0.231-2.079-0.231-3.15v-7.312h-0.577c-4.163-35.692-28.499-63.236-58.266-63.236H738.411c-29.769 0-54.102 27.544-58.208 63.236h-0.865v240.027h0.287v65.898c-0.057 1.211-0.287 2.309-0.287 3.466V899.12h0.865c4.106 35.724 28.439 63.237 58.208 63.237h208.266c29.767 0 54.103-27.514 58.266-63.237h0.577v-5.432h0.231V370.107h-0.231v-60.29c0-1.098 0.231-2.079 0.231-3.177zM761.705 179.355h161.734v411.096H761.705V179.355z m125.03 676.413c-27.343 15.723-61.041 15.723-88.382 0a88.447 88.447 0 0 1-44.161-76.586c0-31.563 16.82-60.753 44.161-76.534 27.341-15.778 61.039-15.778 88.382 0 27.341 15.781 44.22 44.972 44.22 76.534 0 31.616-16.879 60.749-44.22 76.586zM182.75 738.197c-22.659 0-40.982 18.382-40.982 40.984 0 22.599 18.324 40.98 40.982 40.98 22.602 0 40.925-18.382 40.925-40.98 0-22.602-18.323-40.984-40.925-40.984zM345.929 306.64V144.934c0-1.067-0.232-2.079-0.289-3.15v-7.312h-0.578c-4.104-35.692-28.439-63.236-58.208-63.236H78.59c-29.769 0-54.104 27.544-58.266 63.236h-0.809v240.027h0.23v65.898c0 1.211-0.23 2.309-0.23 3.466V899.12h0.809c4.163 35.724 28.498 63.237 58.266 63.237h208.264c29.769 0 54.104-27.514 58.208-63.237h0.578v-5.432h0.289V370.107h-0.289v-60.29c0.057-1.098 0.289-2.079 0.289-3.177zM101.826 179.355h161.733v411.096H101.826V179.355z m80.924 688.206c-48.843 0-88.381-39.537-88.381-88.379 0-48.787 39.538-88.383 88.381-88.383 48.786 0 88.323 39.596 88.323 88.383 0 48.841-39.536 88.379-88.323 88.379z" /></svg>