<?xml version="1.0" standalone="no"?><!DOCTYPE svg PUBLIC "-//W3C//DTD SVG 1.1//EN" "http://www.w3.org/Graphics/SVG/1.1/DTD/svg11.dtd"><svg class="icon" width="200px" height="200.00px" viewBox="0 0 1024 1024" version="1.1" xmlns="http://www.w3.org/2000/svg"><path d="M992 192h-64v768c0 35.328-28.672 64-64 64H160c-35.328 0-64-28.672-64-64v-768H32a32 32 0 0 1 0-64h320V32C352 14.336 366.336 0 384 0h256c17.664 0 32 14.336 32 32V128h320a32 32 0 0 1 0 64z m-384-128h-192V128h192V64z m256 192V192H160v736c0 17.664 14.336 32 32 32h640c17.664 0 32-14.336 32-32V256z m-192 160h64v384h-64v-384z m-192-64h64v448h-64v-448z m-192 64h64v384h-64v-384z" /></svg>