<?xml version="1.0" standalone="no"?><!DOCTYPE svg PUBLIC "-//W3C//DTD SVG 1.1//EN" "http://www.w3.org/Graphics/SVG/1.1/DTD/svg11.dtd"><svg class="icon" width="200px" height="200.00px" viewBox="0 0 1024 1024" version="1.1" xmlns="http://www.w3.org/2000/svg"><path  d="M889.7024 1024H131.8912a66.56 66.56 0 0 1-66.3552-66.3552V66.3552A66.56 66.56 0 0 1 131.8912 0h757.8112a66.56 66.56 0 0 1 66.3552 66.3552v891.2896A66.56 66.56 0 0 1 889.7024 1024zM844.9536 44.288H176.4352A66.56 66.56 0 0 0 110.08 110.6432v802.56a66.56 66.56 0 0 0 66.3552 66.3552h668.5184a66.56 66.56 0 0 0 66.3552-66.3552V110.592A66.56 66.56 0 0 0 844.9536 44.288z m-44.3392 154.3168a19.968 19.968 0 0 0-19.8656-19.9168H263.168a19.968 19.968 0 0 0-19.8656 19.9168v3.328a19.968 19.968 0 0 0 19.8656 19.8656H780.8a19.968 19.968 0 0 0 19.8656-19.8656v-3.328z m0.2048 156.0576a19.968 19.968 0 0 0-19.9168-19.9168H263.3728a19.968 19.968 0 0 0-19.9168 19.9168v3.328a19.968 19.968 0 0 0 19.968 19.8656h517.4784a19.968 19.968 0 0 0 19.968-19.8656v-3.328z m-19.8144 113.6128H263.4752a19.968 19.968 0 0 0-19.968 19.9168v3.2768a19.968 19.968 0 0 0 19.968 19.968h517.5296a19.968 19.968 0 0 0 19.8656-19.968v-3.2768a19.968 19.968 0 0 0-19.8656-19.968z m-381.44 132.864H263.5776a19.968 19.968 0 0 0-19.968 19.8656v3.328a19.968 19.968 0 0 0 19.968 19.9168h135.9872a19.968 19.968 0 0 0 19.968-19.9168v-3.328a19.968 19.968 0 0 0-19.968-19.8656z m378.6752-5.0176l-17.92-17.8688c-14.4896-14.4896-36.7104-15.7184-49.664-2.7648l-200.0896 200.0384 70.4 70.4 200.0384-200.0896c12.9536-12.9536 11.7248-35.2256-2.7648-49.664z m-289.7408 201.728v70.4h70.144l0.1024-0.1536-70.2464-70.2464z" /></svg>