<?xml version="1.0" standalone="no"?><!DOCTYPE svg PUBLIC "-//W3C//DTD SVG 1.1//EN" "http://www.w3.org/Graphics/SVG/1.1/DTD/svg11.dtd"><svg class="icon" width="200px" height="200.00px" viewBox="0 0 1024 1024" version="1.1" xmlns="http://www.w3.org/2000/svg"><path d="M506.860962 1019.975812c-67.720932 0-133.429769-13.26889-195.300649-39.438258-59.748465-25.271618-113.401944-61.443765-159.47161-107.513431S69.845877 773.303001 44.575271 713.554537C18.405904 651.683657 5.136002 585.97482 5.136002 518.253888s13.26889-133.429769 39.438258-195.300649c25.271618-59.747452 61.443765-113.401944 107.513431-159.47161s99.723146-82.241814 159.47161-107.513431c61.87088-26.169368 127.579717-39.438258 195.300649-39.438258s133.430781 13.26889 195.301661 39.438258c59.747452 25.271618 113.401944 61.443765 159.47161 107.513431 46.068654 46.069666 82.240801 99.723146 107.512419 159.47161 26.168356 61.87088 39.438258 127.579717 39.438258 195.300649s-13.26889 133.429769-39.438258 195.301661C943.874023 773.303001 907.701875 826.955469 861.633221 873.025135c-46.069666 46.069666-99.723146 82.241814-159.47161 107.513431C640.291744 1006.706922 574.581894 1019.975812 506.860962 1019.975812zM506.860962 67.134914c-248.747656 0-451.118973 202.371317-451.118973 451.117961 0 248.746644 202.371317 451.116949 451.118973 451.116949 248.746644 0 451.116949-202.370305 451.116949-451.116949C957.977911 269.506232 755.607606 67.134914 506.860962 67.134914zM409.734916 768.042003c-18.449931 13.156544-41.513103-3.287365-41.513103-29.610575L368.221812 329.823508c0-26.315113 23.063172-42.76712 41.513103-29.610575l286.453165 204.297381c19.920541 14.210161 19.920541 45.019086 0 59.226211L409.734916 768.042003 409.734916 768.042003zM409.734916 768.042003" /></svg>