<?xml version="1.0" standalone="no"?><!DOCTYPE svg PUBLIC "-//W3C//DTD SVG 1.1//EN" "http://www.w3.org/Graphics/SVG/1.1/DTD/svg11.dtd"><svg t="1516167856155" class="icon" style="" viewBox="0 0 1024 1024" version="1.1" xmlns="http://www.w3.org/2000/svg" p-id="6353" xmlns:xlink="http://www.w3.org/1999/xlink" width="200" height="200"><defs><style type="text/css"></style></defs><path d="M796.444444 0h119.466667c28.444444 0 51.2 22.755556 51.2 51.2V568.888889H568.888889v170.666667h398.222222v233.244444c0 28.444444-22.755556 51.2-51.2 51.2H108.088889c-28.444444 0-51.2-22.755556-51.2-51.2V51.2c0-28.444444 22.755556-51.2 51.2-51.2h147.911111c17.066667 0 28.444444 11.377778 28.444444 28.444444s-11.377778 28.444444-28.444444 28.444445h512c-17.066667 0-28.444444-11.377778-28.444444-28.444445s11.377778-28.444444 28.444444-28.444444H796.444444z m73.955556 56.888889H153.6c-22.755556 0-45.511111 22.755556-45.511111 45.511111v819.2c0 22.755556 22.755556 45.511111 45.511111 45.511111H870.4c22.755556 0 45.511111-22.755556 45.511111-45.511111V796.444444H512v-284.444444h403.911111V102.4c0-22.755556-22.755556-45.511111-45.511111-45.511111z" fill="#FFFFFF" p-id="6354"></path><path d="M261.688889 204.8h512c28.444444 0 51.2 22.755556 51.2 51.2s-22.755556 51.2-51.2 51.2h-512c-28.444444 0-51.2-22.755556-51.2-51.2s22.755556-51.2 51.2-51.2zM455.111111 398.222222h159.288889c34.133333 0 56.888889 22.755556 56.888889 56.888889v91.022222c0 34.133333-22.755556 56.888889-56.888889 56.888889H455.111111c-34.133333 0-56.888889-22.755556-56.888889-56.888889V455.111111c0-34.133333 22.755556-56.888889 56.888889-56.888889zM455.111111 682.666667h159.288889c34.133333 0 56.888889 22.755556 56.888889 56.888889v91.022222c0 34.133333-22.755556 56.888889-56.888889 56.888889H455.111111c-34.133333 0-56.888889-22.755556-56.888889-56.888889V739.555556c0-34.133333 22.755556-56.888889 56.888889-56.888889z" fill="#FFFFFF" p-id="6355"></path><path d="M449.422222 0h136.533334c45.511111 0 85.333333 39.822222 85.333333 85.333333v136.533334c0 45.511111-39.822222 85.333333-85.333333 85.333333H449.422222c-45.511111 0-85.333333-39.822222-85.333333-85.333333V85.333333C364.088889 39.822222 403.911111 0 449.422222 0z m68.266667 153.6c28.444444 0 51.2-22.755556 51.2-51.2s-22.755556-51.2-51.2-51.2-51.2 22.755556-51.2 51.2 22.755556 51.2 51.2 51.2z" fill="#FFFFFF" p-id="6356"></path></svg>