<?xml version="1.0" standalone="no"?><!DOCTYPE svg PUBLIC "-//W3C//DTD SVG 1.1//EN" "http://www.w3.org/Graphics/SVG/1.1/DTD/svg11.dtd"><svg t="1516197621347" class="icon" style="" viewBox="0 0 1024 1024" version="1.1" xmlns="http://www.w3.org/2000/svg" p-id="20568" xmlns:xlink="http://www.w3.org/1999/xlink" width="200" height="200"><defs><style type="text/css"></style></defs><path d="M570.736451 292.004276c-95.641127 0-173.483767 77.799291-173.483767 173.528922 0 95.641127 77.799291 173.485573 173.483767 173.485573 95.686282 0 173.528922-77.844446 173.528922-173.485573C744.30511 369.848722 666.422733 292.004276 570.736451 292.004276L570.736451 292.004276zM570.736451 292.004276" p-id="20569"></path><path d="M849.441532 5.418658 171.43732 5.418658C77.826384 5.418658 1.932655 81.314194 1.932655 174.923324l0 678.006018c0 93.603711 75.893729 169.499247 169.502859 169.499247l678.006018 0c93.603711 0 169.499247-75.895536 169.499247-169.499247L1018.940779 174.923324C1018.940779 81.314194 943.045244 5.418658 849.441532 5.418658L849.441532 5.418658zM570.736451 713.04487c-60.976163 0-116.784732-22.243593-159.964214-58.983903l-35.681865 35.678253 58.479968 58.516092-52.337015 52.293666-58.478161-58.517898-67.80006 67.80006-52.331596-52.337015 67.756711-67.80006-61.908172-61.908172 52.331596-52.335209 61.913591 61.95694 39.323204-39.323204c-24.450793-38.393001-38.857199-83.817614-38.857199-132.551221 0-136.492392 111.022892-247.51709 247.511672-247.51709 136.492392 0 247.555021 111.024698 247.555021 247.51709C818.293278 601.978629 707.26858 713.04487 570.736451 713.04487L570.736451 713.04487zM570.736451 713.04487" p-id="20570"></path></svg>