<?xml version="1.0" standalone="no"?><!DOCTYPE svg PUBLIC "-//W3C//DTD SVG 1.1//EN" "http://www.w3.org/Graphics/SVG/1.1/DTD/svg11.dtd"><svg t="1516197615036" class="icon" style="" viewBox="0 0 1024 1024" version="1.1" xmlns="http://www.w3.org/2000/svg" p-id="20457" xmlns:xlink="http://www.w3.org/1999/xlink" width="200" height="200"><defs><style type="text/css"></style></defs><path d="M460.2 396c-94.6 0-171.6 77-171.6 171.6 0 94.6 77 171.6 171.6 171.6 94.6 0 171.6-77 171.6-171.6C631.7 473 554.8 396 460.2 396zM852 2 172 2C78.1 2 2 78.1 2 172l0 680c0 93.9 76.1 170 170 170l680 0c93.9 0 170-76.1 170-170L1022 172C1022 78.1 945.9 2 852 2zM816.7 439.6l-81.2 0 0-92.1-71.4 71.4c30.6 41.8 48.8 93.1 48.8 148.8 0 139.4-113.4 252.8-252.8 252.8-139.4 0-252.8-113.4-252.8-252.8 0-139.4 113.4-252.9 252.8-252.9 54.5 0 104.8 17.5 146.2 46.9l76.9-76.9L579.7 284.8l0-81.3 237 0L816.7 439.6z" p-id="20458"></path></svg>