<?xml version="1.0" standalone="no"?><!DOCTYPE svg PUBLIC "-//W3C//DTD SVG 1.1//EN" "http://www.w3.org/Graphics/SVG/1.1/DTD/svg11.dtd"><svg t="1516195033595" class="icon" style="" viewBox="0 0 1024 1024" version="1.1" xmlns="http://www.w3.org/2000/svg" p-id="2004" xmlns:xlink="http://www.w3.org/1999/xlink" width="200" height="200"><defs><style type="text/css"></style></defs><path d="M654.4384 689.64352a61.1328 61.1328 0 0 0 41.54368 16.42496 61.47072 61.47072 0 0 0 61.48096-61.4912c0-21.504-11.07968-40.35584-27.78112-51.3536l0.69632-0.89088a469.37088 469.37088 0 0 0-49.24416-27.79136c69.79584-58.63424 114.25792-146.49344 114.25792-244.80768C795.40224 143.14496 652.27776 0 475.66848 0 299.06944 0 155.93472 143.14496 155.93472 319.73376c0 98.18112 44.34944 189.36832 113.9712 248.04352C125.68576 638.78144 23.43936 769.72032 10.24 953.79456h0.11264S10.24 951.12192 10.24 951.52128c0 33.9456 27.52512 59.77088 61.50144 59.77088 33.95584 0 61.48096-24.97536 61.48096-58.92096 0-0.38912-0.11264 1.42336-0.11264 1.42336h0.27648c18.42176-184.07424 164.61824-310.87616 342.30272-310.87616 65.49504 0 126.49472 16.87552 178.61632 48.64l0.13312-1.91488zM278.90688 319.75424c0-108.67712 88.10496-196.74112 196.75136-196.74112s196.73088 88.07424 196.73088 196.74112c0 108.63616-88.08448 196.77184-196.73088 196.77184s-196.75136-88.14592-196.75136-196.77184zM819.99872 946.92352a61.4912 61.4912 0 1 0 122.9824-0.01024 61.4912 61.4912 0 0 0-122.9824 0.01024zM999.23968 604.7232l-17.37728-17.43872a49.27488 49.27488 0 0 0-69.56032 0L639.51872 860.11904c-19.22048 19.17952-92.99968 124.1088-73.79968 143.32928l17.39776 17.37728c19.17952 19.23072 124.09856-54.55872 143.33952-73.78944l272.78336-272.77312a49.14176 49.14176 0 0 0 0-69.53984z" p-id="2005"></path></svg>