<?xml version="1.0" standalone="no"?><!DOCTYPE svg PUBLIC "-//W3C//DTD SVG 1.1//EN" "http://www.w3.org/Graphics/SVG/1.1/DTD/svg11.dtd"><svg class="icon" width="200px" height="200.00px" viewBox="0 0 1024 1024" version="1.1" xmlns="http://www.w3.org/2000/svg"><path d="M697.742222 895.829333c0 69.006222-101.262222 128.170667-192.284444 128.170667-91.022222 0-192.284444-65.251556-192.284445-128.170667M635.790222 180.451556H571.733333V96.483556c-15.758222-12.8-43.52-31.516444-66.275555-31.516445-23.552 0-50.744889 18.261333-66.275556 31.288889V180.337778H375.068444V68.835556l9.272889-9.386667C390.257778 53.475556 444.188444 0.853333 505.457778 0.853333c60.074667 0 114.801778 52.337778 120.888889 58.368l9.443555 9.386667v111.843556zM505.457778 126.748444a320.512 320.512 0 0 1 320.455111 320.512v192.170667c0 69.575111 128.227556 128.170667 128.227555 128.170667v64.113778H56.888889v-64.113778s128.170667-62.464 128.170667-128.170667V447.260444a320.284444 320.284444 0 0 1 320.398222-320.512z" /></svg>