<?xml version="1.0" encoding="UTF-8"?>
   <!DOCTYPE svg PUBLIC "-//W3C//DTD SVG 1.1//EN" "http://www.w3.org/Graphics/SVG/1.1/DTD/svg11.dtd">
    <svg t="1515721292805" class="icon" style="" viewBox="0 0 1024 1024" version="1.1" xmlns="http://www.w3.org/2000/svg" p-id="2843" xmlns:xlink="http://www.w3.org/1999/xlink" width="50" height="50">
    <!-- Generator: Sketch 47.1 (45422) - http://www.bohemiancoding.com/sketch -->
    <defs><style type="text/css"></style></defs>
    <defs>
        <polygon id="path-1" points="0.00210378682 0.032713885 0.00210378682 25.0000054 24.4653927 25.0000054 24.4653927 0.032713885"></polygon>
    </defs>
    <g id="Symbols" stroke="none" stroke-width="1" fill="none" fill-rule="evenodd">
        <g id="12-图标/30px/个人资料">
            <g id="个人资料-(1)" transform="translate(3.000000, 3.000000)">
                <mask id="mask-2" fill="white">
                    <use xlink:href="#path-1"></use>
                </mask>
                <g id="Clip-2"></g>
                <path d="M15.7069074,16.8478261 C15.9739832,17.0942146 16.3280505,17.2480365 16.7199158,17.2480365 C17.5483871,17.2480365 18.218864,16.5771739 18.218864,15.7486676 C18.218864,15.2243689 17.9487377,14.7648317 17.541129,14.4969495 L17.5582749,14.4748948 C17.1744741,14.2245091 16.7719495,14.0014025 16.3581697,13.7975806 C18.0599579,12.3678121 19.143899,10.2255259 19.143899,7.82850631 C19.143899,3.52314165 15.6540323,0.032713885 11.3481066,0.032713885 C7.04221599,0.032713885 3.55231417,3.52314165 3.55231417,7.82850631 C3.55231417,10.2223703 4.63352034,12.4458976 6.33134642,13.8762272 C2.81490182,15.6077139 0.32173913,18.8001052 0,23.2881837 L0.00273492286,23.2881837 C0.00273492286,23.2881837 0,23.2231417 0,23.2329944 C0,24.060554 0.671002805,24.6901823 1.49950912,24.6901823 C2.32745442,24.6901823 2.99845722,24.0812062 2.99845722,23.2535414 C2.99845722,23.2442146 2.99582749,23.2881837 2.99582749,23.2881837 L3.00255961,23.2881837 C3.45178822,18.8001052 7.01619916,15.7082749 11.3485273,15.7082749 C12.9454067,15.7082749 14.4327139,16.1198457 15.7037518,16.8943899 L15.7069074,16.8478261 Z M6.55077139,7.82892707 C6.55077139,5.17917251 8.69880785,3.03211781 11.3481066,3.03211781 C13.9974404,3.03211781 16.1449158,5.17959327 16.1449158,7.82892707 C16.1449158,10.4778401 13.9974404,12.626683 11.3481066,12.626683 C8.69880785,12.626683 6.55077139,10.4778401 6.55077139,7.82892707 Z" id="Fill-1" fill="#9583B5" mask="url(#mask-2)"></path>
                <path d="M19.7435484,23.1206872 C19.7435484,23.9486325 20.4146914,24.6197756 21.2424965,24.6197756 C22.0704418,24.6197756 22.7415849,23.9486325 22.7415849,23.1206872 C22.7415849,22.2928471 22.0704418,21.6217391 21.2424965,21.6217391 C20.4146914,21.6217391 19.7435484,22.2928471 19.7435484,23.1206872 Z" id="Fill-3" fill="#9583B5" mask="url(#mask-2)"></path>
                <path d="M24.1139551,14.7768934 L23.6899369,14.3518934 C23.2217742,13.8847125 22.4624474,13.8847125 21.9942847,14.3518934 L15.3429874,21.0041725 C14.874439,21.4717742 13.0755259,24.0303997 13.5436886,24.4989481 L13.9682679,24.9227209 C14.4358696,25.39169 16.9941094,23.5923913 17.4626578,23.1234222 L24.1139551,16.4729313 C24.5825386,16.0043829 24.5825386,15.2442146 24.1139551,14.7768934 Z" id="Fill-4" fill="#9583B5" mask="url(#mask-2)"></path>
            </g>
        </g>
    </g>
</svg>