<?xml version="1.0" standalone="no"?><!DOCTYPE svg PUBLIC "-//W3C//DTD SVG 1.1//EN" "http://www.w3.org/Graphics/SVG/1.1/DTD/svg11.dtd"><svg class="icon" width="200px" height="200.00px" viewBox="0 0 1024 1024" version="1.1" xmlns="http://www.w3.org/2000/svg"><path d="M512 0C229.2352 0 0 229.2352 0 512c0 282.7648 229.2352 512 512 512s512-229.2352 512-512C1024 229.2352 794.7648 0 512 0zM512 972.8C257.92 972.8 51.2 766.08 51.2 512S257.92 51.2 512 51.2s460.8 206.72 460.8 460.8S766.08 972.8 512 972.8zM358.4 281.6l51.2 0 0 460.8-51.2 0 0-460.8ZM614.4 281.6l51.2 0 0 460.8-51.2 0 0-460.8Z" /></svg>