<?xml version="1.0" standalone="no"?><!DOCTYPE svg PUBLIC "-//W3C//DTD SVG 1.1//EN" "http://www.w3.org/Graphics/SVG/1.1/DTD/svg11.dtd"><svg t="1516163405758" class="icon" style="" viewBox="0 0 1024 1024" version="1.1" xmlns="http://www.w3.org/2000/svg" p-id="5212" xmlns:xlink="http://www.w3.org/1999/xlink" width="200" height="200"><defs><style type="text/css"></style></defs><path d="M506.311111 347.022222h-17.066667L108.088889 227.555556c-17.066667-5.688889-28.444444-17.066667-34.133333-28.444445-5.688889-11.377778-5.688889-28.444444-5.688889-45.511111 11.377778-17.066667 28.444444-34.133333 45.511111-34.133333l381.155555-85.333334h22.755556l381.155555 85.333334c17.066667 5.688889 28.444444 11.377778 34.133334 22.755555 5.688889 11.377778 11.377778 28.444444 5.688889 45.511111-5.688889 17.066667-17.066667 34.133333-39.822223 39.822223l-381.155555 119.466666h-11.377778z m0-261.688889L125.155556 170.666667l381.155555 119.466666 381.155556-119.466666-381.155556-85.333334z" p-id="5213"></path><path d="M512 659.911111c-187.733333 0-335.644444-147.911111-335.644444-335.644444v-102.4h56.888888v102.4c0 153.6 125.155556 278.755556 278.755556 278.755555s278.755556-125.155556 278.755556-278.755555v-102.4h56.888888v102.4c0 187.733333-147.911111 335.644444-335.644444 335.644444z" p-id="5214"></path><path d="M102.4 455.111111c-17.066667 0-28.444444-11.377778-28.444444-28.444444v-238.933334c0-17.066667 11.377778-28.444444 28.444444-28.444444s28.444444 11.377778 28.444444 28.444444v238.933334c0 17.066667-11.377778 28.444444-28.444444 28.444444zM961.422222 1001.244444c-17.066667 0-28.444444-11.377778-28.444444-28.444444 0-170.666667-147.911111-312.888889-324.266667-312.888889H403.911111c-182.044444 0-324.266667 142.222222-324.266667 312.888889 0 17.066667-11.377778 28.444444-28.444444 28.444444s-28.444444-11.377778-28.444444-28.444444c0-204.8 170.666667-369.777778 381.155555-369.777778h204.8c210.488889 0 381.155556 164.977778 381.155556 369.777778 0 17.066667-11.377778 28.444444-28.444445 28.444444z" p-id="5215"></path></svg>