<?xml version="1.0" standalone="no"?><!DOCTYPE svg PUBLIC "-//W3C//DTD SVG 1.1//EN" "http://www.w3.org/Graphics/SVG/1.1/DTD/svg11.dtd"><svg t="1516167878036" class="icon" style="" viewBox="0 0 1152 1024" version="1.1" xmlns="http://www.w3.org/2000/svg" p-id="6945" xmlns:xlink="http://www.w3.org/1999/xlink" width="225" height="200"><defs><style type="text/css"></style></defs><path d="M1056 0h-960C44.8 0 0 44.8 0 96V896c0 70.4 57.6 128 128 128h896c70.4 0 128-57.6 128-128V96c0-51.2-44.8-96-96-96z m32 896c0 38.4-25.6 64-64 64H128c-38.4 0-64-25.6-64-64V256h1024v640z" fill="#FFFFFF" p-id="6946"></path><path d="M352 32h64v960h-64zM736 32h64v960h-64z" fill="#FFFFFF" p-id="6947"></path><path d="M32 736h1088v64h-1088zM32 480h1088v64h-1088z" fill="#FFFFFF" p-id="6948"></path></svg>