<?xml version="1.0" standalone="no"?><!DOCTYPE svg PUBLIC "-//W3C//DTD SVG 1.1//EN" "http://www.w3.org/Graphics/SVG/1.1/DTD/svg11.dtd"><svg t="1515726742183" class="icon" style="" viewBox="0 0 1024 1024" version="1.1" xmlns="http://www.w3.org/2000/svg" p-id="3117" xmlns:xlink="http://www.w3.org/1999/xlink" width="50" height="50"><defs><style type="text/css"></style></defs><path d="M986.944 252.16c-20.288 0-36.864-16.512-36.864-36.864 0-12.48-10.048-22.656-22.464-22.656H96.32c-12.288 0-22.464 10.112-22.464 22.656 0 20.352-16.512 36.864-36.864 36.864C16.512 252.16 0 235.648 0 215.296c0-53.12 43.264-96.512 96.32-96.512h831.296c53.12 0 96.384 43.392 96.384 96.512 0 20.352-16.576 36.864-36.864 36.864h-0.192z m-59.328 653.12H96.32C43.264 905.28 0 862.144 0 808.896c0-20.352 16.512-36.864 36.992-36.864 20.352 0 36.864 16.512 36.864 36.864 0 12.352 10.112 22.528 22.464 22.528h831.296c12.352 0 22.464-10.112 22.464-22.528 0-20.352 16.576-36.864 36.864-36.864 20.48 0 37.056 16.512 37.056 36.864 0 53.248-43.264 96.384-96.384 96.384zM129.088 669.504v-39.616h58.176V398.016l-64.704 21.888-3.2-41.28 90.304-30.976h21.376v282.24h46.976v39.616H129.088zM393.6 491.52c-9.6-12.352-14.528-29.376-14.528-48.768 0-54.528 42.24-95.104 103.744-95.104 60.8 0 104.128 36.992 104.128 97.856 0 45.376-21.888 78.656-72.064 121.856-17.6 14.848-42.304 38.4-64.064 62.528h141.056v39.616H376.96V648c32.768-36.352 76.928-80.64 111.744-112.768 37.888-34.24 53.44-59.776 53.44-89.28 0-35.136-23.552-57.6-59.968-57.6-36.224 0-58.176 22.848-58.176 51.264 0 12.352 3.776 24.128 11.776 36.224L393.6 491.52z m335.104 97.728c17.216 29.888 38.912 46.528 67.904 46.528 37.312 0 63.04-24.128 63.04-59.392 0-34.624-20.416-52.992-53.504-52.992h-22.912v-39.36h22.4c27.904 0 45.504-14.976 45.504-47.104 0-29.888-21.376-48.512-52.992-48.512-27.136 0-48.576 16-65.152 49.6l-35.776-21.888c20.864-43.776 55.552-68.48 100.864-68.48 58.88 0 97.792 33.344 97.792 86.144 0 32.64-15.424 54.976-42.624 70.016 31.936 12.352 51.328 36.224 51.328 73.28 0 60.864-44.416 99.392-109.056 99.392-48.128 0-81.28-22.976-103.104-60.48l36.288-26.752z m0 0" p-id="3118"></path></svg>